<svg aria-hidden="true" style="position: absolute; width: 0; height: 0; overflow: hidden;" version="1.1" xmlns="http://www.w3.org/2000/svg" xmlns:xlink="http://www.w3.org/1999/xlink">
<defs>
<symbol id="icon-minus" viewBox="0 0 32 32">
<path d="M0 23v6c0 0.552 0.448 1 1 1h30c0.552 0 1-0.448 1-1v-6c0-0.552-0.448-1-1-1h-30c-0.552 0-1 0.448-1 1z"></path>
</symbol>
<symbol id="icon-close" viewBox="0 0 32 32">
<path d="M31.708 25.708c-0-0-0-0-0-0l-9.708-9.708 9.708-9.708c0-0 0-0 0-0 0.105-0.105 0.18-0.227 0.229-0.357 0.133-0.356 0.057-0.771-0.229-1.057l-4.586-4.586c-0.286-0.286-0.702-0.361-1.057-0.229-0.13 0.048-0.252 0.124-0.357 0.228 0 0-0 0-0 0l-9.708 9.708-9.708-9.708c-0-0-0-0-0-0-0.105-0.104-0.227-0.18-0.357-0.228-0.356-0.133-0.771-0.057-1.057 0.229l-4.586 4.586c-0.286 0.286-0.361 0.702-0.229 1.057 0.049 0.13 0.124 0.252 0.229 0.357 0 0 0 0 0 0l9.708 9.708-9.708 9.708c-0 0-0 0-0 0-0.104 0.105-0.18 0.227-0.229 0.357-0.133 0.355-0.057 0.771 0.229 1.057l4.586 4.586c0.286 0.286 0.702 0.361 1.057 0.229 0.13-0.049 0.252-0.124 0.357-0.229 0-0 0-0 0-0l9.708-9.708 9.708 9.708c0 0 0 0 0 0 0.105 0.105 0.227 0.18 0.357 0.229 0.356 0.133 0.771 0.057 1.057-0.229l4.586-4.586c0.286-0.286 0.362-0.702 0.229-1.057-0.049-0.13-0.124-0.252-0.229-0.357z"></path>
</symbol>
<symbol id="icon-windows" viewBox="0 0 18 18">
<path d="M17 1h-10c-0.552 0-1 0.448-1 1v3h-5c-0.552 0-1 0.448-1 1v10c0 0.552 0.448 1 1 1h10c0.552 0 1-0.448 1-1v-3h5c0.552 0 1-0.448 1-1v-10c0-0.552-0.448-1-1-1zM10 14.5c0 0.276-0.224 0.5-0.5 0.5h-7c-0.276 0-0.5-0.224-0.5-0.5v-7c0-0.276 0.224-0.5 0.5-0.5h7c0.276 0 0.5 0.224 0.5 0.5v7zM16 10.5c0 0.276-0.224 0.5-0.5 0.5h-3.5v-5c0-0.552-0.448-1-1-1h-3v-1.5c0-0.276 0.224-0.5 0.5-0.5h7c0.276 0 0.5 0.224 0.5 0.5v7z"></path>
</symbol>
<symbol id="icon-google" viewBox="0 0 32 32">
<path d="M16.319 13.717v5.489h9.073c-0.363 2.357-2.739 6.903-9.073 6.903-5.459 0-9.917-4.527-9.917-10.104s4.458-10.104 9.917-10.104c3.113 0 5.184 1.326 6.372 2.465l4.34-4.183c-2.789-2.602-6.402-4.183-10.712-4.183-8.847 0.010-15.995 7.158-15.995 16.005s7.148 15.995 15.995 15.995c9.23 0 15.357-6.49 15.357-15.632 0-1.051-0.118-1.856-0.255-2.651h-15.102z"></path>
</symbol>
<symbol id="icon-facebook" viewBox="0 0 32 32">
<path d="M19 6h5v-6h-5c-3.86 0-7 3.14-7 7v3h-4v6h4v16h6v-16h5l1-6h-6v-3c0-0.542 0.458-1 1-1z"></path>
</symbol>
<symbol id="icon-instagram" viewBox="0 0 32 32">
<path d="M16 2.881c4.275 0 4.781 0.019 6.462 0.094 1.563 0.069 2.406 0.331 2.969 0.55 0.744 0.288 1.281 0.638 1.837 1.194 0.563 0.563 0.906 1.094 1.2 1.838 0.219 0.563 0.481 1.412 0.55 2.969 0.075 1.688 0.094 2.194 0.094 6.463s-0.019 4.781-0.094 6.463c-0.069 1.563-0.331 2.406-0.55 2.969-0.288 0.744-0.637 1.281-1.194 1.837-0.563 0.563-1.094 0.906-1.837 1.2-0.563 0.219-1.413 0.481-2.969 0.55-1.688 0.075-2.194 0.094-6.463 0.094s-4.781-0.019-6.463-0.094c-1.563-0.069-2.406-0.331-2.969-0.55-0.744-0.288-1.281-0.637-1.838-1.194-0.563-0.563-0.906-1.094-1.2-1.837-0.219-0.563-0.481-1.413-0.55-2.969-0.075-1.688-0.094-2.194-0.094-6.463s0.019-4.781 0.094-6.463c0.069-1.563 0.331-2.406 0.55-2.969 0.288-0.744 0.638-1.281 1.194-1.838 0.563-0.563 1.094-0.906 1.838-1.2 0.563-0.219 1.412-0.481 2.969-0.55 1.681-0.075 2.188-0.094 6.463-0.094zM16 0c-4.344 0-4.887 0.019-6.594 0.094-1.7 0.075-2.869 0.35-3.881 0.744-1.056 0.412-1.95 0.956-2.837 1.85-0.894 0.888-1.438 1.781-1.85 2.831-0.394 1.019-0.669 2.181-0.744 3.881-0.075 1.713-0.094 2.256-0.094 6.6s0.019 4.887 0.094 6.594c0.075 1.7 0.35 2.869 0.744 3.881 0.413 1.056 0.956 1.95 1.85 2.837 0.887 0.887 1.781 1.438 2.831 1.844 1.019 0.394 2.181 0.669 3.881 0.744 1.706 0.075 2.25 0.094 6.594 0.094s4.888-0.019 6.594-0.094c1.7-0.075 2.869-0.35 3.881-0.744 1.050-0.406 1.944-0.956 2.831-1.844s1.438-1.781 1.844-2.831c0.394-1.019 0.669-2.181 0.744-3.881 0.075-1.706 0.094-2.25 0.094-6.594s-0.019-4.887-0.094-6.594c-0.075-1.7-0.35-2.869-0.744-3.881-0.394-1.063-0.938-1.956-1.831-2.844-0.887-0.887-1.781-1.438-2.831-1.844-1.019-0.394-2.181-0.669-3.881-0.744-1.712-0.081-2.256-0.1-6.6-0.1v0z"></path>
<path d="M16 7.781c-4.537 0-8.219 3.681-8.219 8.219s3.681 8.219 8.219 8.219 8.219-3.681 8.219-8.219c0-4.537-3.681-8.219-8.219-8.219zM16 21.331c-2.944 0-5.331-2.387-5.331-5.331s2.387-5.331 5.331-5.331c2.944 0 5.331 2.387 5.331 5.331s-2.387 5.331-5.331 5.331z"></path>
<path d="M26.462 7.456c0 1.060-0.859 1.919-1.919 1.919s-1.919-0.859-1.919-1.919c0-1.060 0.859-1.919 1.919-1.919s1.919 0.859 1.919 1.919z"></path>
</symbol>
<symbol id="icon-whatsapp" viewBox="0 0 32 32">
<path d="M27.281 4.65c-2.994-3-6.975-4.65-11.219-4.65-8.738 0-15.85 7.112-15.85 15.856 0 2.794 0.731 5.525 2.119 7.925l-2.25 8.219 8.406-2.206c2.319 1.262 4.925 1.931 7.575 1.931h0.006c0 0 0 0 0 0 8.738 0 15.856-7.113 15.856-15.856 0-4.238-1.65-8.219-4.644-11.219zM16.069 29.050v0c-2.369 0-4.688-0.637-6.713-1.837l-0.481-0.288-4.987 1.306 1.331-4.863-0.313-0.5c-1.325-2.094-2.019-4.519-2.019-7.012 0-7.269 5.912-13.181 13.188-13.181 3.519 0 6.831 1.375 9.319 3.862 2.488 2.494 3.856 5.8 3.856 9.325-0.006 7.275-5.919 13.188-13.181 13.188zM23.294 19.175c-0.394-0.2-2.344-1.156-2.706-1.288s-0.625-0.2-0.894 0.2c-0.262 0.394-1.025 1.288-1.256 1.556-0.231 0.262-0.462 0.3-0.856 0.1s-1.675-0.619-3.188-1.969c-1.175-1.050-1.975-2.35-2.206-2.744s-0.025-0.613 0.175-0.806c0.181-0.175 0.394-0.463 0.594-0.694s0.262-0.394 0.394-0.662c0.131-0.262 0.069-0.494-0.031-0.694s-0.894-2.15-1.219-2.944c-0.319-0.775-0.65-0.669-0.894-0.681-0.231-0.012-0.494-0.012-0.756-0.012s-0.694 0.1-1.056 0.494c-0.363 0.394-1.387 1.356-1.387 3.306s1.419 3.831 1.619 4.1c0.2 0.262 2.794 4.269 6.769 5.981 0.944 0.406 1.681 0.65 2.256 0.837 0.95 0.3 1.813 0.256 2.494 0.156 0.762-0.113 2.344-0.956 2.675-1.881s0.331-1.719 0.231-1.881c-0.094-0.175-0.356-0.275-0.756-0.475z"></path>
</symbol>
<symbol id="icon-github" viewBox="0 0 32 32">
<path d="M16 0.395c-8.836 0-16 7.163-16 16 0 7.069 4.585 13.067 10.942 15.182 0.8 0.148 1.094-0.347 1.094-0.77 0-0.381-0.015-1.642-0.022-2.979-4.452 0.968-5.391-1.888-5.391-1.888-0.728-1.849-1.776-2.341-1.776-2.341-1.452-0.993 0.11-0.973 0.11-0.973 1.606 0.113 2.452 1.649 2.452 1.649 1.427 2.446 3.743 1.739 4.656 1.33 0.143-1.034 0.558-1.74 1.016-2.14-3.554-0.404-7.29-1.777-7.29-7.907 0-1.747 0.625-3.174 1.649-4.295-0.166-0.403-0.714-2.030 0.155-4.234 0 0 1.344-0.43 4.401 1.64 1.276-0.355 2.645-0.532 4.005-0.539 1.359 0.006 2.729 0.184 4.008 0.539 3.054-2.070 4.395-1.64 4.395-1.64 0.871 2.204 0.323 3.831 0.157 4.234 1.026 1.12 1.647 2.548 1.647 4.295 0 6.145-3.743 7.498-7.306 7.895 0.574 0.497 1.085 1.47 1.085 2.963 0 2.141-0.019 3.864-0.019 4.391 0 0.426 0.288 0.925 1.099 0.768 6.354-2.118 10.933-8.113 10.933-15.18 0-8.837-7.164-16-16-16z"></path>
</symbol>
<symbol id="icon-linkedin" viewBox="0 0 32 32">
<path d="M12 12h5.535v2.837h0.079c0.77-1.381 2.655-2.837 5.464-2.837 5.842 0 6.922 3.637 6.922 8.367v9.633h-5.769v-8.54c0-2.037-0.042-4.657-3.001-4.657-3.005 0-3.463 2.218-3.463 4.509v8.688h-5.767v-18z"></path>
<path d="M2 12h6v18h-6v-18z"></path>
<path d="M8 7c0 1.657-1.343 3-3 3s-3-1.343-3-3c0-1.657 1.343-3 3-3s3 1.343 3 3z"></path>
</symbol>
<symbol id="icon-json" viewBox="0 0 32 32">
<path fill="#f5de19" style="fill: var(--color1, #f5de19)" d="M13.904 9.248h-0.557c-0.176 0-0.33 0.032-0.432 0.141-0.097 0.086-0.173 0.193-0.222 0.314l-0.002 0.006c-0.042 0.122-0.078 0.268-0.101 0.417l-0.002 0.015c-0.026 0.179-0.026 0.32-0.026 0.429v3.213c0.002 0.031 0.002 0.067 0.002 0.103 0 0.313-0.067 0.609-0.187 0.877l0.005-0.014c-0.112 0.244-0.275 0.448-0.476 0.605l-0.004 0.003c-0.335 0.255-0.756 0.412-1.213 0.426l-0.003 0v0.035c0.157 0 0.333 0.032 0.531 0.061l0.077 0.013c0.235 0.043 0.441 0.143 0.61 0.286l-0.002-0.002c0.176 0.144 0.352 0.358 0.48 0.64 0.128 0.288 0.179 0.682 0.179 1.146v3.037c0 0.141 0 0.285 0.026 0.429 0.022 0.176 0.048 0.32 0.128 0.429 0.051 0.138 0.148 0.25 0.272 0.318l0.003 0.002c0.128 0.070 0.278 0.144 0.509 0.144h0.429v3.533h-1.798c-0.278-0.008-0.538-0.072-0.774-0.181l0.012 0.005c-0.284-0.13-0.528-0.299-0.737-0.503l0.001 0c-0.235-0.25-0.423-0.547-0.547-0.875l-0.006-0.018c-0.131-0.342-0.207-0.738-0.207-1.151 0-0.047 0.001-0.093 0.003-0.139l-0 0.007v-4c0.001-0.025 0.002-0.055 0.002-0.084 0-0.243-0.056-0.473-0.157-0.677l0.004 0.009c-0.176-0.318-0.472-0.551-0.826-0.638l-0.009-0.002c-0.154-0.038-0.282-0.038-0.355-0.038v-3.392c0.099 0 0.202 0 0.352-0.035 0.165-0.026 0.311-0.089 0.435-0.181l-0.003 0.002c0.151-0.108 0.278-0.238 0.377-0.388l0.003-0.005c0.128-0.179 0.15-0.394 0.15-0.678v-4.179c0-0.499 0.077-0.928 0.205-1.283 0.141-0.345 0.329-0.642 0.559-0.899l-0.003 0.003c0.383-0.391 0.906-0.644 1.488-0.678l0.006-0h1.798v3.392zM18.794 9.248h0.557c0.179 0 0.33 0.032 0.432 0.141 0.098 0.086 0.175 0.193 0.225 0.314l0.002 0.006c0.051 0.144 0.077 0.288 0.102 0.432 0.026 0.179 0.026 0.32 0.026 0.429v3.213c0 0.394 0.051 0.714 0.176 0.966 0.128 0.25 0.278 0.464 0.48 0.608 0.335 0.255 0.756 0.412 1.213 0.426l0.003 0v0.035c-0.157 0-0.333 0.032-0.531 0.061l-0.074 0.013c-0.235 0.043-0.441 0.143-0.61 0.286l0.002-0.002c-0.205 0.171-0.368 0.385-0.476 0.629l-0.004 0.011c-0.115 0.302-0.182 0.651-0.182 1.015 0 0.046 0.001 0.091 0.003 0.137l-0-0.006v3.037c0 0.141 0 0.285-0.026 0.429-0.009 0.159-0.056 0.306-0.131 0.433l0.003-0.005c-0.052 0.139-0.15 0.25-0.275 0.318l-0.003 0.002c-0.144 0.090-0.318 0.144-0.506 0.144h-0.432v3.533h1.798c0.278-0.008 0.538-0.072 0.774-0.181l-0.012 0.005c0.284-0.13 0.528-0.299 0.737-0.503l-0.001 0c0.236-0.249 0.425-0.546 0.551-0.875l0.006-0.018c0.15-0.355 0.202-0.784 0.202-1.283v-4c0-0.32 0.051-0.573 0.15-0.752 0.176-0.319 0.474-0.552 0.83-0.638l0.009-0.002c0.15-0.038 0.278-0.038 0.352-0.038v-3.392c-0.099 0-0.202 0-0.352-0.035-0.165-0.026-0.311-0.089-0.435-0.181l0.003 0.002c-0.151-0.108-0.278-0.238-0.377-0.388l-0.003-0.005c-0.128-0.179-0.15-0.394-0.15-0.678v-4.179c0-0.016 0-0.035 0-0.054 0-0.44-0.074-0.862-0.21-1.256l0.008 0.027c-0.142-0.345-0.331-0.642-0.562-0.899l0.002 0.003c-0.383-0.391-0.906-0.644-1.488-0.678l-0.006-0h-1.798v3.392z"></path>
</symbol>
<symbol id="icon-file_type" viewBox="0 0 32 32">
<path fill="#c2c2c2" style="fill: var(--color1, #c2c2c2)" d="M22.034 2.002h-15.653c-0.964 0.003-1.746 0.782-1.751 1.746v24.503c0.003 0.966 0.785 1.748 1.751 1.751h19.246c0.966-0.003 1.748-0.785 1.751-1.751v-21.395l-5.339-4.859zM22.565 4.846l1.659 1.531h-1.659v-1.531zM6.377 28.251v-24.503h14.437v4.375h4.814v20.128h-19.25z"></path>
<path fill="#829ec2" style="fill: var(--color2, #829ec2)" d="M21.202 15.095h-13.074v1.751h13.074v-1.751zM17.888 24.439h-9.765v1.751h9.765v-1.751zM23.877 19.762h-15.753v1.751h15.753v-1.751zM23.877 10.231h-15.753v1.751h15.753v-1.751z"></path>
</symbol>
<symbol id="icon-jpg" viewBox="0 0 32 32">
<path fill="#e8e8e8" style="fill: var(--color1, #e8e8e8)" d="M23.2 0h-19.735v32h25.070v-26.665l-5.335-5.335z"></path>
<path fill="#38a3ff" style="fill: var(--color2, #38a3ff)" d="M22.249 6.514h-12.654v12.654h12.654v-12.654z"></path>
<path fill="#007934" style="fill: var(--color3, #007934)" d="M19.506 12.946l-2.514 4.242-4.091-6.903-3.301 5.591v3.291h12.654v-1.586l-2.743-4.631z"></path>
<path fill="#38a3ff" style="fill: var(--color2, #38a3ff)" d="M24.027 2.665h-20.562v-2.665h19.735l0.823 2.665z"></path>
<path fill="#a4a9ad" style="fill: var(--color4, #a4a9ad)" d="M9.957 30.491c-0.011 0-0.024 0-0.037 0-0.239 0-0.473-0.025-0.698-0.073l0.022 0.004v-1.065l0.238 0.046c0.081 0.017 0.173 0.027 0.268 0.027 0.001 0 0.001 0 0.002 0h-0c0.229 0 0.389-0.069 0.485-0.201 0.096-0.137 0.146-0.37 0.146-0.699v-4.69h1.371v4.571c0 0.686-0.146 1.202-0.448 1.554s-0.75 0.53-1.349 0.53zM16.526 25.454c0 0.562-0.169 1.006-0.503 1.307-0.348 0.292-0.801 0.47-1.296 0.47-0.043 0-0.085-0.001-0.127-0.004l0.006 0h-0.389v1.678h-1.367v-5.065h1.751c0.64 0 1.12 0.142 1.445 0.421 0.32 0.279 0.48 0.677 0.48 1.189zM14.217 26.112h0.251c0.010 0 0.021 0.001 0.032 0.001 0.176 0 0.336-0.066 0.458-0.175l-0.001 0.001c0.114-0.113 0.184-0.27 0.184-0.443 0-0.013-0-0.026-0.001-0.038l0 0.002c0-0.343-0.192-0.512-0.567-0.512h-0.357v1.166zM19.365 25.943h2.185v2.729c-0.594 0.201-1.243 0.302-1.957 0.302-0.042 0.003-0.090 0.004-0.14 0.004-0.65 0-1.24-0.26-1.671-0.681l0 0c-0.425-0.457-0.64-1.097-0.64-1.938 0-0.818 0.238-1.454 0.704-1.906 0.466-0.457 1.12-0.686 1.957-0.686 0.003 0 0.006 0 0.009 0 0.59 0 1.153 0.118 1.666 0.331l-0.029-0.011-0.434 1.074c-0.342-0.17-0.745-0.27-1.172-0.27-0.011 0-0.021 0-0.032 0h0.002c-0.020-0.001-0.044-0.002-0.068-0.002-0.342 0-0.65 0.151-0.859 0.389l-0.001 0.001c-0.205 0.276-0.329 0.624-0.329 1 0 0.041 0.001 0.081 0.004 0.121l-0-0.005c0 0.471 0.096 0.832 0.293 1.083 0.19 0.228 0.474 0.372 0.792 0.372 0.022 0 0.044-0.001 0.066-0.002l-0.003 0c0.006 0 0.013 0 0.020 0 0.192 0 0.38-0.022 0.56-0.063l-0.017 0.003v-0.791h-0.905v-1.056z"></path>
<path fill="#d1d3d3" style="fill: var(--color5, #d1d3d3)" d="M23.2 5.335h5.335l-5.335-5.335v5.335z"></path>
</symbol>
</defs>
</svg>
