<svg aria-hidden="true" style="position: absolute; width: 0; height: 0; overflow: hidden;" version="1.1" xmlns="http://www.w3.org/2000/svg" xmlns:xlink="http://www.w3.org/1999/xlink">
<defs>
<symbol id="icon-minus" viewBox="0 0 32 32">
<path d="M0 23v6c0 0.552 0.448 1 1 1h30c0.552 0 1-0.448 1-1v-6c0-0.552-0.448-1-1-1h-30c-0.552 0-1 0.448-1 1z"></path>
</symbol>
<symbol id="icon-close" viewBox="0 0 32 32">
<path d="M31.708 25.708c-0-0-0-0-0-0l-9.708-9.708 9.708-9.708c0-0 0-0 0-0 0.105-0.105 0.18-0.227 0.229-0.357 0.133-0.356 0.057-0.771-0.229-1.057l-4.586-4.586c-0.286-0.286-0.702-0.361-1.057-0.229-0.13 0.048-0.252 0.124-0.357 0.228 0 0-0 0-0 0l-9.708 9.708-9.708-9.708c-0-0-0-0-0-0-0.105-0.104-0.227-0.18-0.357-0.228-0.356-0.133-0.771-0.057-1.057 0.229l-4.586 4.586c-0.286 0.286-0.361 0.702-0.229 1.057 0.049 0.13 0.124 0.252 0.229 0.357 0 0 0 0 0 0l9.708 9.708-9.708 9.708c-0 0-0 0-0 0-0.104 0.105-0.18 0.227-0.229 0.357-0.133 0.355-0.057 0.771 0.229 1.057l4.586 4.586c0.286 0.286 0.702 0.361 1.057 0.229 0.13-0.049 0.252-0.124 0.357-0.229 0-0 0-0 0-0l9.708-9.708 9.708 9.708c0 0 0 0 0 0 0.105 0.105 0.227 0.18 0.357 0.229 0.356 0.133 0.771 0.057 1.057-0.229l4.586-4.586c0.286-0.286 0.362-0.702 0.229-1.057-0.049-0.13-0.124-0.252-0.229-0.357z"></path>
</symbol>
<symbol id="icon-windows" viewBox="0 0 18 18">
<path d="M17 1h-10c-0.552 0-1 0.448-1 1v3h-5c-0.552 0-1 0.448-1 1v10c0 0.552 0.448 1 1 1h10c0.552 0 1-0.448 1-1v-3h5c0.552 0 1-0.448 1-1v-10c0-0.552-0.448-1-1-1zM10 14.5c0 0.276-0.224 0.5-0.5 0.5h-7c-0.276 0-0.5-0.224-0.5-0.5v-7c0-0.276 0.224-0.5 0.5-0.5h7c0.276 0 0.5 0.224 0.5 0.5v7zM16 10.5c0 0.276-0.224 0.5-0.5 0.5h-3.5v-5c0-0.552-0.448-1-1-1h-3v-1.5c0-0.276 0.224-0.5 0.5-0.5h7c0.276 0 0.5 0.224 0.5 0.5v7z"></path>
</symbol>
<symbol id="icon-google" viewBox="0 0 32 32">
<path d="M16.319 13.717v5.489h9.073c-0.363 2.357-2.739 6.903-9.073 6.903-5.459 0-9.917-4.527-9.917-10.104s4.458-10.104 9.917-10.104c3.113 0 5.184 1.326 6.372 2.465l4.34-4.183c-2.789-2.602-6.402-4.183-10.712-4.183-8.847 0.010-15.995 7.158-15.995 16.005s7.148 15.995 15.995 15.995c9.23 0 15.357-6.49 15.357-15.632 0-1.051-0.118-1.856-0.255-2.651h-15.102z"></path>
</symbol>
<symbol id="icon-facebook" viewBox="0 0 32 32">
<path d="M19 6h5v-6h-5c-3.86 0-7 3.14-7 7v3h-4v6h4v16h6v-16h5l1-6h-6v-3c0-0.542 0.458-1 1-1z"></path>
</symbol>
<symbol id="icon-instagram" viewBox="0 0 32 32">
<path d="M16 2.881c4.275 0 4.781 0.019 6.462 0.094 1.563 0.069 2.406 0.331 2.969 0.55 0.744 0.288 1.281 0.638 1.837 1.194 0.563 0.563 0.906 1.094 1.2 1.838 0.219 0.563 0.481 1.412 0.55 2.969 0.075 1.688 0.094 2.194 0.094 6.463s-0.019 4.781-0.094 6.463c-0.069 1.563-0.331 2.406-0.55 2.969-0.288 0.744-0.637 1.281-1.194 1.837-0.563 0.563-1.094 0.906-1.837 1.2-0.563 0.219-1.413 0.481-2.969 0.55-1.688 0.075-2.194 0.094-6.463 0.094s-4.781-0.019-6.463-0.094c-1.563-0.069-2.406-0.331-2.969-0.55-0.744-0.288-1.281-0.637-1.838-1.194-0.563-0.563-0.906-1.094-1.2-1.837-0.219-0.563-0.481-1.413-0.55-2.969-0.075-1.688-0.094-2.194-0.094-6.463s0.019-4.781 0.094-6.463c0.069-1.563 0.331-2.406 0.55-2.969 0.288-0.744 0.638-1.281 1.194-1.838 0.563-0.563 1.094-0.906 1.838-1.2 0.563-0.219 1.412-0.481 2.969-0.55 1.681-0.075 2.188-0.094 6.463-0.094zM16 0c-4.344 0-4.887 0.019-6.594 0.094-1.7 0.075-2.869 0.35-3.881 0.744-1.056 0.412-1.95 0.956-2.837 1.85-0.894 0.888-1.438 1.781-1.85 2.831-0.394 1.019-0.669 2.181-0.744 3.881-0.075 1.713-0.094 2.256-0.094 6.6s0.019 4.887 0.094 6.594c0.075 1.7 0.35 2.869 0.744 3.881 0.413 1.056 0.956 1.95 1.85 2.837 0.887 0.887 1.781 1.438 2.831 1.844 1.019 0.394 2.181 0.669 3.881 0.744 1.706 0.075 2.25 0.094 6.594 0.094s4.888-0.019 6.594-0.094c1.7-0.075 2.869-0.35 3.881-0.744 1.050-0.406 1.944-0.956 2.831-1.844s1.438-1.781 1.844-2.831c0.394-1.019 0.669-2.181 0.744-3.881 0.075-1.706 0.094-2.25 0.094-6.594s-0.019-4.887-0.094-6.594c-0.075-1.7-0.35-2.869-0.744-3.881-0.394-1.063-0.938-1.956-1.831-2.844-0.887-0.887-1.781-1.438-2.831-1.844-1.019-0.394-2.181-0.669-3.881-0.744-1.712-0.081-2.256-0.1-6.6-0.1v0z"></path>
<path d="M16 7.781c-4.537 0-8.219 3.681-8.219 8.219s3.681 8.219 8.219 8.219 8.219-3.681 8.219-8.219c0-4.537-3.681-8.219-8.219-8.219zM16 21.331c-2.944 0-5.331-2.387-5.331-5.331s2.387-5.331 5.331-5.331c2.944 0 5.331 2.387 5.331 5.331s-2.387 5.331-5.331 5.331z"></path>
<path d="M26.462 7.456c0 1.060-0.859 1.919-1.919 1.919s-1.919-0.859-1.919-1.919c0-1.060 0.859-1.919 1.919-1.919s1.919 0.859 1.919 1.919z"></path>
</symbol>
<symbol id="icon-whatsapp" viewBox="0 0 32 32">
<path d="M27.281 4.65c-2.994-3-6.975-4.65-11.219-4.65-8.738 0-15.85 7.112-15.85 15.856 0 2.794 0.731 5.525 2.119 7.925l-2.25 8.219 8.406-2.206c2.319 1.262 4.925 1.931 7.575 1.931h0.006c0 0 0 0 0 0 8.738 0 15.856-7.113 15.856-15.856 0-4.238-1.65-8.219-4.644-11.219zM16.069 29.050v0c-2.369 0-4.688-0.637-6.713-1.837l-0.481-0.288-4.987 1.306 1.331-4.863-0.313-0.5c-1.325-2.094-2.019-4.519-2.019-7.012 0-7.269 5.912-13.181 13.188-13.181 3.519 0 6.831 1.375 9.319 3.862 2.488 2.494 3.856 5.8 3.856 9.325-0.006 7.275-5.919 13.188-13.181 13.188zM23.294 19.175c-0.394-0.2-2.344-1.156-2.706-1.288s-0.625-0.2-0.894 0.2c-0.262 0.394-1.025 1.288-1.256 1.556-0.231 0.262-0.462 0.3-0.856 0.1s-1.675-0.619-3.188-1.969c-1.175-1.050-1.975-2.35-2.206-2.744s-0.025-0.613 0.175-0.806c0.181-0.175 0.394-0.463 0.594-0.694s0.262-0.394 0.394-0.662c0.131-0.262 0.069-0.494-0.031-0.694s-0.894-2.15-1.219-2.944c-0.319-0.775-0.65-0.669-0.894-0.681-0.231-0.012-0.494-0.012-0.756-0.012s-0.694 0.1-1.056 0.494c-0.363 0.394-1.387 1.356-1.387 3.306s1.419 3.831 1.619 4.1c0.2 0.262 2.794 4.269 6.769 5.981 0.944 0.406 1.681 0.65 2.256 0.837 0.95 0.3 1.813 0.256 2.494 0.156 0.762-0.113 2.344-0.956 2.675-1.881s0.331-1.719 0.231-1.881c-0.094-0.175-0.356-0.275-0.756-0.475z"></path>
</symbol>
<symbol id="icon-github" viewBox="0 0 32 32">
<path d="M16 0.395c-8.836 0-16 7.163-16 16 0 7.069 4.585 13.067 10.942 15.182 0.8 0.148 1.094-0.347 1.094-0.77 0-0.381-0.015-1.642-0.022-2.979-4.452 0.968-5.391-1.888-5.391-1.888-0.728-1.849-1.776-2.341-1.776-2.341-1.452-0.993 0.11-0.973 0.11-0.973 1.606 0.113 2.452 1.649 2.452 1.649 1.427 2.446 3.743 1.739 4.656 1.33 0.143-1.034 0.558-1.74 1.016-2.14-3.554-0.404-7.29-1.777-7.29-7.907 0-1.747 0.625-3.174 1.649-4.295-0.166-0.403-0.714-2.030 0.155-4.234 0 0 1.344-0.43 4.401 1.64 1.276-0.355 2.645-0.532 4.005-0.539 1.359 0.006 2.729 0.184 4.008 0.539 3.054-2.070 4.395-1.64 4.395-1.64 0.871 2.204 0.323 3.831 0.157 4.234 1.026 1.12 1.647 2.548 1.647 4.295 0 6.145-3.743 7.498-7.306 7.895 0.574 0.497 1.085 1.47 1.085 2.963 0 2.141-0.019 3.864-0.019 4.391 0 0.426 0.288 0.925 1.099 0.768 6.354-2.118 10.933-8.113 10.933-15.18 0-8.837-7.164-16-16-16z"></path>
</symbol>
<symbol id="icon-linkedin" viewBox="0 0 32 32">
<path d="M12 12h5.535v2.837h0.079c0.77-1.381 2.655-2.837 5.464-2.837 5.842 0 6.922 3.637 6.922 8.367v9.633h-5.769v-8.54c0-2.037-0.042-4.657-3.001-4.657-3.005 0-3.463 2.218-3.463 4.509v8.688h-5.767v-18z"></path>
<path d="M2 12h6v18h-6v-18z"></path>
<path d="M8 7c0 1.657-1.343 3-3 3s-3-1.343-3-3c0-1.657 1.343-3 3-3s3 1.343 3 3z"></path>
</symbol>
<symbol id="icon-json" viewBox="0 0 32 32">
<path fill="#f5de19" style="fill: var(--color1, #f5de19)" d="M13.904 9.248h-0.557c-0.176 0-0.33 0.032-0.432 0.141-0.097 0.086-0.173 0.193-0.222 0.314l-0.002 0.006c-0.042 0.122-0.078 0.268-0.101 0.417l-0.002 0.015c-0.026 0.179-0.026 0.32-0.026 0.429v3.213c0.002 0.031 0.002 0.067 0.002 0.103 0 0.313-0.067 0.609-0.187 0.877l0.005-0.014c-0.112 0.244-0.275 0.448-0.476 0.605l-0.004 0.003c-0.335 0.255-0.756 0.412-1.213 0.426l-0.003 0v0.035c0.157 0 0.333 0.032 0.531 0.061l0.077 0.013c0.235 0.043 0.441 0.143 0.61 0.286l-0.002-0.002c0.176 0.144 0.352 0.358 0.48 0.64 0.128 0.288 0.179 0.682 0.179 1.146v3.037c0 0.141 0 0.285 0.026 0.429 0.022 0.176 0.048 0.32 0.128 0.429 0.051 0.138 0.148 0.25 0.272 0.318l0.003 0.002c0.128 0.070 0.278 0.144 0.509 0.144h0.429v3.533h-1.798c-0.278-0.008-0.538-0.072-0.774-0.181l0.012 0.005c-0.284-0.13-0.528-0.299-0.737-0.503l0.001 0c-0.235-0.25-0.423-0.547-0.547-0.875l-0.006-0.018c-0.131-0.342-0.207-0.738-0.207-1.151 0-0.047 0.001-0.093 0.003-0.139l-0 0.007v-4c0.001-0.025 0.002-0.055 0.002-0.084 0-0.243-0.056-0.473-0.157-0.677l0.004 0.009c-0.176-0.318-0.472-0.551-0.826-0.638l-0.009-0.002c-0.154-0.038-0.282-0.038-0.355-0.038v-3.392c0.099 0 0.202 0 0.352-0.035 0.165-0.026 0.311-0.089 0.435-0.181l-0.003 0.002c0.151-0.108 0.278-0.238 0.377-0.388l0.003-0.005c0.128-0.179 0.15-0.394 0.15-0.678v-4.179c0-0.499 0.077-0.928 0.205-1.283 0.141-0.345 0.329-0.642 0.559-0.899l-0.003 0.003c0.383-0.391 0.906-0.644 1.488-0.678l0.006-0h1.798v3.392zM18.794 9.248h0.557c0.179 0 0.33 0.032 0.432 0.141 0.098 0.086 0.175 0.193 0.225 0.314l0.002 0.006c0.051 0.144 0.077 0.288 0.102 0.432 0.026 0.179 0.026 0.32 0.026 0.429v3.213c0 0.394 0.051 0.714 0.176 0.966 0.128 0.25 0.278 0.464 0.48 0.608 0.335 0.255 0.756 0.412 1.213 0.426l0.003 0v0.035c-0.157 0-0.333 0.032-0.531 0.061l-0.074 0.013c-0.235 0.043-0.441 0.143-0.61 0.286l0.002-0.002c-0.205 0.171-0.368 0.385-0.476 0.629l-0.004 0.011c-0.115 0.302-0.182 0.651-0.182 1.015 0 0.046 0.001 0.091 0.003 0.137l-0-0.006v3.037c0 0.141 0 0.285-0.026 0.429-0.009 0.159-0.056 0.306-0.131 0.433l0.003-0.005c-0.052 0.139-0.15 0.25-0.275 0.318l-0.003 0.002c-0.144 0.090-0.318 0.144-0.506 0.144h-0.432v3.533h1.798c0.278-0.008 0.538-0.072 0.774-0.181l-0.012 0.005c0.284-0.13 0.528-0.299 0.737-0.503l-0.001 0c0.236-0.249 0.425-0.546 0.551-0.875l0.006-0.018c0.15-0.355 0.202-0.784 0.202-1.283v-4c0-0.32 0.051-0.573 0.15-0.752 0.176-0.319 0.474-0.552 0.83-0.638l0.009-0.002c0.15-0.038 0.278-0.038 0.352-0.038v-3.392c-0.099 0-0.202 0-0.352-0.035-0.165-0.026-0.311-0.089-0.435-0.181l0.003 0.002c-0.151-0.108-0.278-0.238-0.377-0.388l-0.003-0.005c-0.128-0.179-0.15-0.394-0.15-0.678v-4.179c0-0.016 0-0.035 0-0.054 0-0.44-0.074-0.862-0.21-1.256l0.008 0.027c-0.142-0.345-0.331-0.642-0.562-0.899l0.002 0.003c-0.383-0.391-0.906-0.644-1.488-0.678l-0.006-0h-1.798v3.392z"></path>
</symbol>
<symbol id="icon-file_type" viewBox="0 0 32 32">
<path fill="#c2c2c2" style="fill: var(--color1, #c2c2c2)" d="M22.034 2.002h-15.653c-0.964 0.003-1.746 0.782-1.751 1.746v24.503c0.003 0.966 0.785 1.748 1.751 1.751h19.246c0.966-0.003 1.748-0.785 1.751-1.751v-21.395l-5.339-4.859zM22.565 4.846l1.659 1.531h-1.659v-1.531zM6.377 28.251v-24.503h14.437v4.375h4.814v20.128h-19.25z"></path>
<path fill="#829ec2" style="fill: var(--color2, #829ec2)" d="M21.202 15.095h-13.074v1.751h13.074v-1.751zM17.888 24.439h-9.765v1.751h9.765v-1.751zM23.877 19.762h-15.753v1.751h15.753v-1.751zM23.877 10.231h-15.753v1.751h15.753v-1.751z"></path>
</symbol>
<symbol id="icon-jpg" viewBox="0 0 32 32">
<path fill="#e8e8e8" style="fill: var(--color1, #e8e8e8)" d="M23.2 0h-19.735v32h25.070v-26.665l-5.335-5.335z"></path>
<path fill="#38a3ff" style="fill: var(--color2, #38a3ff)" d="M22.249 6.514h-12.654v12.654h12.654v-12.654z"></path>
<path fill="#007934" style="fill: var(--color3, #007934)" d="M19.506 12.946l-2.514 4.242-4.091-6.903-3.301 5.591v3.291h12.654v-1.586l-2.743-4.631z"></path>
<path fill="#38a3ff" style="fill: var(--color2, #38a3ff)" d="M24.027 2.665h-20.562v-2.665h19.735l0.823 2.665z"></path>
<path fill="#a4a9ad" style="fill: var(--color4, #a4a9ad)" d="M9.957 30.491c-0.011 0-0.024 0-0.037 0-0.239 0-0.473-0.025-0.698-0.073l0.022 0.004v-1.065l0.238 0.046c0.081 0.017 0.173 0.027 0.268 0.027 0.001 0 0.001 0 0.002 0h-0c0.229 0 0.389-0.069 0.485-0.201 0.096-0.137 0.146-0.37 0.146-0.699v-4.69h1.371v4.571c0 0.686-0.146 1.202-0.448 1.554s-0.75 0.53-1.349 0.53zM16.526 25.454c0 0.562-0.169 1.006-0.503 1.307-0.348 0.292-0.801 0.47-1.296 0.47-0.043 0-0.085-0.001-0.127-0.004l0.006 0h-0.389v1.678h-1.367v-5.065h1.751c0.64 0 1.12 0.142 1.445 0.421 0.32 0.279 0.48 0.677 0.48 1.189zM14.217 26.112h0.251c0.010 0 0.021 0.001 0.032 0.001 0.176 0 0.336-0.066 0.458-0.175l-0.001 0.001c0.114-0.113 0.184-0.27 0.184-0.443 0-0.013-0-0.026-0.001-0.038l0 0.002c0-0.343-0.192-0.512-0.567-0.512h-0.357v1.166zM19.365 25.943h2.185v2.729c-0.594 0.201-1.243 0.302-1.957 0.302-0.042 0.003-0.090 0.004-0.14 0.004-0.65 0-1.24-0.26-1.671-0.681l0 0c-0.425-0.457-0.64-1.097-0.64-1.938 0-0.818 0.238-1.454 0.704-1.906 0.466-0.457 1.12-0.686 1.957-0.686 0.003 0 0.006 0 0.009 0 0.59 0 1.153 0.118 1.666 0.331l-0.029-0.011-0.434 1.074c-0.342-0.17-0.745-0.27-1.172-0.27-0.011 0-0.021 0-0.032 0h0.002c-0.020-0.001-0.044-0.002-0.068-0.002-0.342 0-0.65 0.151-0.859 0.389l-0.001 0.001c-0.205 0.276-0.329 0.624-0.329 1 0 0.041 0.001 0.081 0.004 0.121l-0-0.005c0 0.471 0.096 0.832 0.293 1.083 0.19 0.228 0.474 0.372 0.792 0.372 0.022 0 0.044-0.001 0.066-0.002l-0.003 0c0.006 0 0.013 0 0.020 0 0.192 0 0.38-0.022 0.56-0.063l-0.017 0.003v-0.791h-0.905v-1.056z"></path>
<path fill="#d1d3d3" style="fill: var(--color5, #d1d3d3)" d="M23.2 5.335h5.335l-5.335-5.335v5.335z"></path>
</symbol>
<symbol id="icon-Frame-60" viewBox="0 0 530 32">
<path fill="none" stroke="#ccc" style="stroke: var(--color1, #ccc)" stroke-linejoin="miter" stroke-linecap="butt" stroke-miterlimit="4" stroke-width="1.3714" d="M5.257 2.971h18.286c2.146 0 3.886 1.74 3.886 3.886v18.286c0 2.146-1.74 3.886-3.886 3.886h-18.286c-2.146 0-3.886-1.74-3.886-3.886v-18.286c0-2.146 1.74-3.886 3.886-3.886z"></path>
<path fill="none" stroke="#ccc" style="stroke: var(--color1, #ccc)" stroke-linejoin="round" stroke-linecap="butt" stroke-miterlimit="4" stroke-width="1.3714" d="M11.657 9.143l6.857 6.857-6.857 6.857"></path>
<path fill="#ccc" style="fill: var(--color1, #ccc)" d="M64.603 15.895c0 1.193-0.169 2.24-0.507 3.131-0.566 1.658-1.829 2.947-3.43 3.535l-0.039 0.013c-0.758 0.281-1.633 0.444-2.546 0.444-0.022 0-0.045-0-0.067-0l0.003 0c-0.059 0.001-0.128 0.002-0.197 0.002-0.844 0-1.663-0.107-2.444-0.309l0.068 0.015v5.618h-2.331v-18.926h2.080l0.146 2.249c0.667-0.919 1.385-1.563 2.144-1.929 0.706-0.355 1.539-0.562 2.42-0.562 0.016 0 0.031 0 0.047 0l-0.002-0c0.027-0.001 0.058-0.001 0.090-0.001 0.706 0 1.371 0.178 1.952 0.492l-0.022-0.011c0.581 0.32 1.070 0.777 1.463 1.371 0.389 0.576 0.686 1.28 0.882 2.112 0.197 0.823 0.293 1.737 0.293 2.761zM62.222 16c0-0.704-0.055-1.353-0.16-1.943-0.087-0.564-0.257-1.072-0.498-1.536l0.013 0.028c-0.204-0.401-0.493-0.731-0.846-0.977l-0.009-0.006c-0.334-0.227-0.746-0.362-1.189-0.362-0.021 0-0.041 0-0.062 0.001l0.003-0c-0.694 0.027-1.33 0.254-1.858 0.624l0.011-0.007c-0.386 0.267-0.724 0.552-1.032 0.867l-0.001 0.001c-0.401 0.409-0.778 0.846-1.127 1.306l-0.025 0.034v6.523c0.807 0.363 1.75 0.575 2.743 0.576h0c1.262 0 2.249-0.425 2.967-1.271 0.713-0.859 1.070-2.144 1.070-3.858zM79.899 16.027c0 1.042-0.146 2.002-0.443 2.88-0.293 0.869-0.718 1.609-1.271 2.235-0.553 0.617-1.23 1.097-2.021 1.445-0.768 0.324-1.66 0.513-2.597 0.513-0.039 0-0.077-0-0.115-0.001l0.006 0c-0.965 0-1.829-0.146-2.597-0.443-0.765-0.305-1.414-0.756-1.94-1.322l-0.003-0.003c-0.535-0.603-0.953-1.323-1.209-2.116l-0.012-0.042c-0.262-0.835-0.413-1.794-0.413-2.789 0-0.059 0.001-0.118 0.002-0.177l-0 0.009c0-1.047 0.146-1.998 0.439-2.853 0.293-0.869 0.718-1.609 1.271-2.222 0.549-0.618 1.225-1.109 1.989-1.435l0.036-0.014c0.764-0.33 1.653-0.522 2.588-0.522 0.040 0 0.080 0 0.12 0.001l-0.006-0c0.965 0 1.829 0.151 2.587 0.457 0.768 0.293 1.417 0.731 1.943 1.312 0.535 0.571 0.942 1.28 1.216 2.139 0.288 0.859 0.43 1.842 0.43 2.949zM77.513 16.133c0-0.827-0.091-1.554-0.279-2.167-0.16-0.597-0.427-1.117-0.784-1.563l0.007 0.008c-0.326-0.406-0.744-0.726-1.223-0.929l-0.020-0.008c-0.459-0.203-0.995-0.321-1.558-0.321-0.023 0-0.046 0-0.069 0.001l0.003-0c-0.031-0.001-0.068-0.002-0.105-0.002-0.617 0-1.197 0.153-1.707 0.423l0.020-0.010c-0.493 0.27-0.902 0.637-1.213 1.077l-0.007 0.011c-0.311 0.457-0.549 0.983-0.695 1.591-0.137 0.551-0.215 1.184-0.215 1.835 0 0.018 0 0.037 0 0.055v-0.003c0 0.832 0.091 1.559 0.265 2.185 0.171 0.601 0.442 1.124 0.798 1.578l-0.007-0.010c0.329 0.399 0.742 0.717 1.213 0.929l0.021 0.008c0.462 0.194 0.999 0.307 1.563 0.307 0.024 0 0.049-0 0.073-0.001l-0.004 0c0.695 0 1.289-0.137 1.783-0.402 0.493-0.272 0.9-0.642 1.208-1.086l0.008-0.012c0.32-0.457 0.553-0.983 0.699-1.582 0.145-0.567 0.229-1.218 0.229-1.888 0-0.010-0-0.019-0-0.029v0.002zM95.73 9.413l-1.957 13.445h-2.825l-1.943-5.623-0.389-1.371-0.439 1.449-1.87 5.545h-2.743l-1.943-13.445h2.277l1.125 9.134 0.242 2.034 0.576-1.783 1.952-6.039h1.678l2.103 5.961 0.603 1.783 0.201-1.893 1.042-9.198h2.304zM109.714 15.424c-0.002 0.519-0.022 1.029-0.059 1.535l0.004-0.072h-9.445c0 1.371 0.384 2.432 1.152 3.173 0.768 0.731 1.874 1.097 3.323 1.097 0.393 0 0.786-0.014 1.179-0.041 0.838-0.074 1.583-0.182 2.315-0.329l-0.134 0.022c0.338-0.073 0.654-0.146 0.937-0.229v1.915c-0.631 0.178-1.353 0.32-2.153 0.43-0.731 0.111-1.575 0.174-2.434 0.174-0.015 0-0.031-0-0.046-0h0.002c-1.152 0-2.149-0.155-2.971-0.471-0.811-0.295-1.499-0.758-2.050-1.35l-0.003-0.003c-0.527-0.608-0.933-1.338-1.169-2.14l-0.010-0.041c-0.239-0.838-0.376-1.8-0.376-2.794 0-0.050 0-0.099 0.001-0.148l-0 0.008c0-0.946 0.137-1.838 0.402-2.679 0.273-0.853 0.679-1.592 1.199-2.235l-0.010 0.013c0.523-0.635 1.167-1.149 1.9-1.512l0.034-0.015c0.727-0.355 1.581-0.563 2.484-0.563 0.035 0 0.069 0 0.104 0.001l-0.005-0c0.937 0 1.769 0.146 2.491 0.443 0.722 0.293 1.33 0.713 1.824 1.257 0.498 0.535 0.869 1.189 1.125 1.966 0.256 0.773 0.389 1.632 0.389 2.587zM107.291 15.090c0.005-0.084 0.008-0.182 0.008-0.281 0-0.483-0.068-0.949-0.195-1.391l0.009 0.036c-0.137-0.493-0.367-0.922-0.672-1.285l0.004 0.005c-0.297-0.358-0.671-0.642-1.096-0.829l-0.019-0.007c-0.434-0.194-0.94-0.307-1.473-0.307-0.029 0-0.057 0-0.086 0.001l0.004-0c-0.016-0-0.034-0-0.052-0-0.97 0-1.839 0.435-2.422 1.12l-0.004 0.005c-0.304 0.366-0.552 0.791-0.722 1.255l-0.010 0.030c-0.187 0.503-0.306 1.051-0.352 1.646h7.072zM113.984 9.413h2.13l0.069 2.478c0.649-0.826 1.424-1.518 2.303-2.058l0.038-0.022c0.777-0.425 1.559-0.64 2.345-0.64 1.394 0 2.446 0.448 3.159 1.353 0.727 0.901 1.061 2.24 1.006 4.018h-2.359c0.027-1.179-0.146-2.034-0.521-2.56-0.335-0.49-0.891-0.807-1.522-0.807-0.034 0-0.068 0.001-0.101 0.003l0.005-0c-0.342 0.002-0.668 0.066-0.97 0.18l0.019-0.006c-0.374 0.139-0.697 0.321-0.987 0.546l0.008-0.006c-0.329 0.238-0.686 0.549-1.061 0.937-0.41 0.426-0.804 0.879-1.173 1.351l-0.029 0.038v8.64h-2.359v-13.445zM139.163 19.186c0 0.016 0 0.035 0 0.054 0 0.864-0.342 1.648-0.897 2.224l0.001-0.001c-0.278 0.285-0.595 0.529-0.944 0.725l-0.021 0.011c-0.71 0.389-1.537 0.672-2.415 0.8l-0.040 0.005c-0.434 0.064-0.864 0.091-1.28 0.091-0.914 0-1.755-0.037-2.523-0.119-0.851-0.091-1.612-0.228-2.352-0.413l0.117 0.025v-2.139c0.786 0.219 1.568 0.393 2.345 0.507s1.55 0.174 2.318 0.174c1.115 0 1.943-0.151 2.478-0.457 0.535-0.302 0.805-0.731 0.805-1.298 0-0.238-0.046-0.457-0.137-0.64-0.104-0.225-0.26-0.41-0.453-0.546l-0.004-0.003c-0.3-0.219-0.644-0.404-1.013-0.539l-0.029-0.009c-0.472-0.194-1.109-0.414-1.758-0.605l-0.158-0.040c-0.68-0.199-1.24-0.404-1.783-0.641l0.096 0.037c-0.506-0.228-0.942-0.502-1.336-0.826l0.010 0.008c-0.362-0.3-0.658-0.665-0.873-1.078l-0.009-0.019c-0.203-0.411-0.321-0.894-0.321-1.405 0-0.028 0-0.056 0.001-0.085l-0 0.004c0-0.375 0.082-0.786 0.251-1.234 0.21-0.492 0.514-0.907 0.892-1.24l0.004-0.003c0.421-0.384 0.987-0.699 1.701-0.951 0.718-0.261 1.609-0.389 2.679-0.389 1.336 0.005 2.637 0.147 3.892 0.411l-0.125-0.022v2.075c-1.125-0.291-2.428-0.479-3.767-0.52l-0.028-0.001c-0.581 0-1.070 0.046-1.472 0.133-0.362 0.075-0.684 0.205-0.973 0.382l0.013-0.008c-0.413 0.246-0.686 0.69-0.686 1.198 0 0.008 0 0.016 0 0.023v-0.001c0 0.238 0.046 0.457 0.137 0.654 0.127 0.234 0.302 0.427 0.511 0.572l0.005 0.004c0.261 0.183 0.617 0.366 1.074 0.549s1.051 0.375 1.783 0.594c0.791 0.229 1.463 0.475 2.007 0.731 0.544 0.251 0.987 0.53 1.326 0.846 0.316 0.283 0.563 0.637 0.716 1.038l0.006 0.018c0.151 0.393 0.229 0.841 0.229 1.339zM154.405 22.857h-2.331v-8.585c0-1.033-0.197-1.806-0.59-2.318-0.358-0.476-0.922-0.78-1.556-0.78-0.036 0-0.072 0.001-0.108 0.003l0.005-0c-0.002 0-0.004 0-0.006 0-0.65 0-1.249 0.216-1.729 0.581l0.007-0.005c-0.356 0.261-0.67 0.539-0.957 0.842l-0.003 0.003c-0.403 0.416-0.798 0.852-1.179 1.301l-0.032 0.039v8.919h-2.331v-18.926h2.331v5.486l-0.078 2.112c0.331-0.401 0.681-0.76 1.059-1.088l0.011-0.009c0.357-0.302 0.713-0.549 1.061-0.731 0.312-0.171 0.673-0.311 1.054-0.401l0.029-0.006c0.366-0.078 0.745-0.119 1.138-0.119 1.339 0 2.377 0.411 3.109 1.234 0.731 0.809 1.097 2.039 1.097 3.68v8.768zM170.034 15.424c-0.002 0.519-0.022 1.029-0.059 1.535l0.004-0.072h-9.44c0 1.371 0.384 2.432 1.152 3.173 0.768 0.731 1.874 1.097 3.319 1.097 0.393 0 0.786-0.014 1.179-0.041 0.838-0.074 1.583-0.182 2.315-0.329l-0.134 0.022c0.415-0.085 0.732-0.164 1.044-0.254l-0.102 0.025v1.915c-0.64 0.178-1.353 0.32-2.158 0.43-0.731 0.111-1.575 0.174-2.434 0.174-0.015 0-0.031-0-0.046-0h0.002c-1.152 0-2.144-0.155-2.971-0.471-0.811-0.295-1.499-0.758-2.050-1.35l-0.003-0.003c-0.527-0.608-0.933-1.338-1.169-2.14l-0.010-0.041c-0.236-0.833-0.371-1.79-0.371-2.778 0-0.055 0-0.11 0.001-0.165l-0 0.008c0-0.946 0.133-1.838 0.398-2.679 0.275-0.853 0.682-1.592 1.203-2.234l-0.010 0.013c0.522-0.634 1.165-1.148 1.896-1.512l0.034-0.015c0.727-0.355 1.581-0.563 2.484-0.563 0.035 0 0.069 0 0.104 0.001l-0.005-0c0.942 0 1.769 0.146 2.491 0.443 0.722 0.293 1.33 0.713 1.824 1.257 0.503 0.535 0.873 1.189 1.125 1.966 0.256 0.773 0.389 1.632 0.389 2.587zM167.611 15.090c0.005-0.083 0.007-0.18 0.007-0.277 0-0.484-0.066-0.952-0.19-1.396l0.009 0.037c-0.139-0.494-0.37-0.922-0.676-1.285l0.004 0.005c-0.296-0.358-0.668-0.642-1.092-0.829l-0.019-0.007c-0.434-0.194-0.94-0.307-1.472-0.307-0.029 0-0.058 0-0.087 0.001l0.004-0c-0.016-0-0.034-0-0.052-0-0.97 0-1.839 0.435-2.422 1.12l-0.004 0.005c-0.306 0.366-0.555 0.791-0.726 1.255l-0.010 0.030c-0.187 0.503-0.306 1.051-0.347 1.646h7.072zM178.336 5.847h-3.977v-1.915h6.336v16.983h4.005v1.943h-10.784v-1.943h4.421v-15.063zM193.422 5.847h-3.982v-1.915h6.336v16.983h4.005v1.943h-10.784v-1.943h4.421v-15.063z"></path>
<path fill="none" stroke="#ccc" style="stroke: var(--color1, #ccc)" stroke-linejoin="miter" stroke-linecap="butt" stroke-miterlimit="4" stroke-width="2.2857" d="M231.867 4.571v22.857M242.971 16h-22.857"></path>
<path fill="none" stroke="#ccc" style="stroke: var(--color1, #ccc)" stroke-linejoin="miter" stroke-linecap="butt" stroke-miterlimit="4" stroke-width="1.3714" d="M261.257 13.714l9.143 9.143 9.143-9.143"></path>
<path fill="none" stroke="#ccc" style="stroke: var(--color1, #ccc)" stroke-linejoin="miter" stroke-linecap="butt" stroke-miterlimit="4" stroke-width="2.2857" d="M371.429 0v27.429"></path>
<path fill="none" stroke="#ccc" style="stroke: var(--color1, #ccc)" stroke-linejoin="miter" stroke-linecap="butt" stroke-miterlimit="4" stroke-width="2.2857" d="M361.829 1.143h18.286c1.894 0 3.429 1.535 3.429 3.429v18.286c0 1.894-1.535 3.429-3.429 3.429h-18.286c-1.894 0-3.429-1.535-3.429-3.429v-18.286c0-1.894 1.535-3.429 3.429-3.429z"></path>
<path fill="#ccc" style="fill: var(--color1, #ccc)" d="M425.787 21.879h1.225c0.338 0 0.613-0.274 0.613-0.613v0-11.017c0-0.001 0-0.003 0-0.005 0-0.338-0.274-0.613-0.613-0.613 0 0 0 0-0 0h-1.225c-0.338 0-0.613 0.274-0.613 0.613v0 11.017c0 0.001-0 0.003-0 0.005 0 0.338 0.274 0.613 0.613 0.613 0 0 0 0 0 0v0zM434.153 4.736h-4.206l-1.733-2.894c-0.436-0.717-1.213-1.189-2.1-1.189-0.001 0-0.002 0-0.003 0h-5.143c-0.001 0-0.002 0-0.002 0-0.887 0-1.664 0.472-2.094 1.178l-0.006 0.011-1.733 2.894h-4.206c-0.448 0.003-0.811 0.365-0.814 0.813v0.819c0.003 0.448 0.365 0.811 0.813 0.814h0.819v17.143c0 1.353 1.097 2.45 2.45 2.45v0h14.693c1.353 0 2.45-1.097 2.45-2.45v0-17.143h0.814c0 0 0 0 0 0 0.45 0 0.816-0.364 0.818-0.813v-0.819c-0.003-0.45-0.368-0.814-0.818-0.814 0 0 0 0 0 0v0zM420.882 3.246c0.054-0.088 0.149-0.146 0.259-0.146 0.001 0 0.001 0 0.002 0h4.8c0.11 0 0.206 0.058 0.26 0.145l0.001 0.001 0.891 1.486h-7.104l0.891-1.486zM430.889 24.32h-14.693v-17.143h14.693v17.143zM420.073 21.874h1.225c0.338 0 0.613-0.274 0.613-0.613v0-11.017c0-0.001 0-0.003 0-0.005 0-0.338-0.274-0.613-0.613-0.613 0 0 0 0-0 0h-1.225c-0.338 0-0.613 0.274-0.613 0.613v0 11.017c0 0.001-0 0.003-0 0.005 0 0.338 0.274 0.613 0.613 0.613 0 0 0 0 0 0v0z"></path>
<path fill="none" stroke="#ccc" style="stroke: var(--color1, #ccc)" stroke-linejoin="miter" stroke-linecap="butt" stroke-miterlimit="4" stroke-width="1.3714" d="M480.686 18.286l-9.143-9.143-9.143 9.143"></path>
<path fill="none" stroke="#ccc" style="stroke: var(--color1, #ccc)" stroke-linejoin="miter" stroke-linecap="butt" stroke-miterlimit="4" stroke-width="2.2857" d="M526.4 4.571l-18.286 17.554M508.114 5.303l18.286 17.554"></path>
</symbol>
</defs>
</svg>
